<?xml version="1.0" encoding="UTF-8"?>
<svg xmlns="http://www.w3.org/2000/svg" xmlns:xlink="http://www.w3.org/1999/xlink" viewBox="0 0 30 30" width="30px" height="30px">
<g id="surface47079598">
<path style=" stroke:none;fill-rule:nonzero;fill:rgb(34.901962%,58.823532%,45.09804%);fill-opacity:1;" d="M 15 1.199219 C 7.390625 1.199219 1.199219 7.390625 1.199219 15 C 1.199219 22.609375 7.390625 28.800781 15 28.800781 C 22.609375 28.800781 28.800781 22.609375 28.800781 15 C 28.800781 7.390625 22.609375 1.199219 15 1.199219 Z M 19.199219 9.601562 L 17.226562 9.601562 C 16.0625 9.601562 15.601562 9.871094 15.601562 10.683594 L 15.601562 12.601562 L 19.199219 12.601562 L 18.601562 15.601562 L 15.601562 15.601562 L 15.601562 23.398438 L 12 23.398438 L 12 15.601562 L 10.199219 15.601562 L 10.199219 12.601562 L 12 12.601562 L 12 10.9375 C 12 8.402344 13.011719 6.601562 15.949219 6.601562 C 17.523438 6.601562 19.199219 7.199219 19.199219 7.199219 Z M 19.199219 9.601562 "/>
</g>
</svg>
