<?xml version="1.0" encoding="UTF-8"?>
<svg xmlns="http://www.w3.org/2000/svg" xmlns:xlink="http://www.w3.org/1999/xlink" viewBox="0 0 30 30" width="30px" height="30px">
<g id="surface45729257">
<path style=" stroke:none;fill-rule:nonzero;fill:rgb(34.901962%,58.823532%,45.09804%);fill-opacity:1;" d="M 15 30 C 6.714844 30 0 23.285156 0 15 C 0 6.714844 6.714844 0 15 0 C 23.285156 0 30 6.714844 30 15 C 30 23.285156 23.285156 30 15 30 Z M 15 30 "/>
<path style=" stroke:none;fill-rule:nonzero;fill:rgb(100%,100%,100%);fill-opacity:1;" d="M 11.304688 6.027344 C 8.40625 6.027344 6.027344 8.40625 6.027344 11.304688 L 6.027344 18.695312 C 6.027344 21.59375 8.40625 23.972656 11.304688 23.972656 L 18.695312 23.972656 C 21.59375 23.972656 23.972656 21.59375 23.972656 18.695312 L 23.972656 11.304688 C 23.972656 8.40625 21.59375 6.027344 18.695312 6.027344 Z M 11.304688 7.660156 L 18.695312 7.660156 C 20.710938 7.660156 22.339844 9.289062 22.339844 11.304688 L 22.339844 18.695312 C 22.339844 20.710938 20.710938 22.339844 18.695312 22.339844 L 11.304688 22.339844 C 9.289062 22.339844 7.660156 20.710938 7.660156 18.695312 L 7.660156 11.304688 C 7.660156 9.289062 9.289062 7.660156 11.304688 7.660156 Z M 19.816406 9.445312 C 19.40625 9.445312 19.078125 9.773438 19.078125 10.183594 C 19.078125 10.59375 19.40625 10.921875 19.816406 10.921875 C 20.226562 10.921875 20.554688 10.59375 20.554688 10.183594 C 20.554688 9.773438 20.226562 9.445312 19.816406 9.445312 Z M 15 10.105469 C 12.308594 10.105469 10.105469 12.308594 10.105469 15 C 10.105469 17.691406 12.308594 19.894531 15 19.894531 C 17.691406 19.894531 19.894531 17.691406 19.894531 15 C 19.894531 12.308594 17.691406 10.105469 15 10.105469 Z M 15 11.738281 C 16.8125 11.738281 18.261719 13.1875 18.261719 15 C 18.261719 16.8125 16.8125 18.261719 15 18.261719 C 13.1875 18.261719 11.738281 16.8125 11.738281 15 C 11.738281 13.1875 13.1875 11.738281 15 11.738281 Z M 15 11.738281 "/>
</g>
</svg>
